<?xml version="1.0" encoding="utf-8"?>
<!-- Generator: Adobe Illustrator 16.0.3, SVG Export Plug-In . SVG Version: 6.00 Build 0)  -->
<!DOCTYPE svg PUBLIC "-//W3C//DTD SVG 1.1//EN" "http://www.w3.org/Graphics/SVG/1.1/DTD/svg11.dtd">
<svg version="1.1" id="Layer_1" focusable="false" xmlns="http://www.w3.org/2000/svg" xmlns:xlink="http://www.w3.org/1999/xlink"
	 x="0px" y="0px" width="612px" height="792px" viewBox="0 0 612 792" enable-background="new 0 0 612 792" xml:space="preserve">
<path d="M179.32,568.221c-5.384,10.769-5.385,23.443,0,34.213l99.634,199.268h7.929l-0.001-157.023
	c-2.722-1.605-5.579-2.924-7.919-5.266c-14.936-14.935-14.936-39.158,0-54.094s39.159-14.935,54.094,0
	c14.934,14.936,14.936,39.158,0,54.094c-2.342,2.342-5.199,3.66-7.92,5.266v157.024l7.91-0.001l99.635-199.268
	c5.389-10.768,5.389-23.445,0-34.214l-56.105-309.009H232.425L179.32,568.221z M209.283-958l23.845,1162.219h143.408L402.381-958
	C410.705-1093.226,201.017-1092.169,209.283-958z"/>
</svg>
